# xmcd CD database file
#
# Track frame offsets:
#	150
#	20390
#	43985
#	69861
#	90339
#	106732
#	130358
#	152852
#	173092
#	196687
#	222563
#	243041
#	259434
#	283060
#	305554
#
# Disc length: 4376 seconds
#
# Revision: 0
# Processed by: cddbd v1.5.2PL0 Copyright (c) Steve Scherf et al.
# Submitted via: CDex 1.70beta2
#
DISCID=cf11160f
DTITLE=Salsa Karaoké Latin Stars - Canta lo Mejor de la Salsa Vol 5
DYEAR=2007
DGENRE=Salsa
TTITLE0=Mas Que tu Amigo (instrumental)
TTITLE1=Que Precio Tiene El Cielo (Instrumental)
TTITLE2=Concienca (Instrumental)
TTITLE3=Ay Amor cuando Hablan la Miradas (Instrumental)
TTITLE4=El Cuarto de Tula (Instrumental)
TTITLE5=Apiadate de Mi ( Instrumental)
TTITLE6=Si Te Dijeron ( Instrumental)
TTITLE7=Mas Que tu Amigo ( Con Voz)
TTITLE8=Que Precio Tiene El Cielo (Con Voz)
TTITLE9=Concienca (Con Voz)
TTITLE10=Ay Amor cuando Hablan la Miradas (Con Voz)
TTITLE11=El Cuarto de Tula ( Con Voz)
TTITLE12=Apiadate de Mi (Con Voz)
TTITLE13=Si Te Dijeron ( Con Voz)
TTITLE14=Tu Amor me Hace Bien (ConVoz)
EXTD=YEAR: 2007
EXTT0=
EXTT1=
EXTT2=
EXTT3=
EXTT4=
EXTT5=
EXTT6=
EXTT7=
EXTT8=
EXTT9=
EXTT10=
EXTT11=
EXTT12=
EXTT13=
EXTT14=
PLAYORDER=
